HIERARCHY
ROOT RootJoint
{
    OFFSET   0.000000   0.000000   0.000000
    CHANNELS 6 Xposition Yposition Zposition Xrotation Yrotation Zrotation
    JOINT pelvis_lowerback
    {
        OFFSET   0.000000   0.093605   0.000000
        CHANNELS 3 Xrotation Yrotation Zrotation
        JOINT lowerback_torso
        {
            OFFSET   0.000000   0.100000   0.000000
            CHANNELS 3 Xrotation Yrotation Zrotation
            JOINT torso_head
            {
                OFFSET   0.000000   0.282350   0.000000
                CHANNELS 3 Xrotation Yrotation Zrotation
                End Site
                {
                    OFFSET   0.000000   0.192650   0.000000
                }
            }
            JOINT rTorso_Clavicle
            {
                OFFSET  -0.001000   0.157500   0.000000
                CHANNELS 3 Xrotation Yrotation Zrotation
                JOINT rShoulder
                {
                    OFFSET  -0.117647   0.000000   0.000000
                    CHANNELS 3 Xrotation Yrotation Zrotation
                    JOINT rElbow
                    {
                        OFFSET  -0.245000   0.000000   0.000000
                        CHANNELS 3 Xrotation Yrotation Zrotation
                        JOINT rWrist
                        {
                            OFFSET  -0.240000   0.000000   0.000000
                            CHANNELS 3 Xrotation Yrotation Zrotation
                            End Site
                            {
                                OFFSET  -0.116353  -0.002500   0.000000
                            }
                        }
                    }
                }
            }
            JOINT lTorso_Clavicle
            {
                OFFSET   0.001000   0.157500   0.000000
                CHANNELS 3 Xrotation Yrotation Zrotation
                JOINT lShoulder
                {
                    OFFSET   0.117647   0.000000   0.000000
                    CHANNELS 3 Xrotation Yrotation Zrotation
                    JOINT lElbow
                    {
                        OFFSET   0.245000   0.000000   0.000000
                        CHANNELS 3 Xrotation Yrotation Zrotation
                        JOINT lWrist
                        {
                            OFFSET   0.240000   0.000000   0.000000
                            CHANNELS 3 Xrotation Yrotation Zrotation
                            End Site
                            {
                                OFFSET   0.116353  -0.002500   0.000000
                            }
                        }
                    }
                }
            }
        }
    }
    JOINT rHip
    {
        OFFSET  -0.100000  -0.051395   0.000000
        CHANNELS 3 Xrotation Yrotation Zrotation
        JOINT rKnee
        {
            OFFSET   0.000000  -0.410000   0.000000
            CHANNELS 3 Xrotation Yrotation Zrotation
            JOINT rAnkle
            {
                OFFSET   0.000000  -0.390000   0.000000
                CHANNELS 3 Xrotation Yrotation Zrotation
                JOINT rToeJoint
                {
                    OFFSET   0.000000  -0.050000   0.130000
                    CHANNELS 3 Xrotation Yrotation Zrotation
                    End Site
                    {
                        OFFSET  -0.010000   0.002000   0.060000
                    }
                }
            }
        }
    }
    JOINT lHip
    {
        OFFSET   0.100000  -0.051395   0.000000
        CHANNELS 3 Xrotation Yrotation Zrotation
        JOINT lKnee
        {
            OFFSET   0.000000  -0.410000   0.000000
            CHANNELS 3 Xrotation Yrotation Zrotation
            JOINT lAnkle
            {
                OFFSET   0.000000  -0.390000   0.000000
                CHANNELS 3 Xrotation Yrotation Zrotation
                JOINT lToeJoint
                {
                    OFFSET   0.000000  -0.050000   0.130000
                    CHANNELS 3 Xrotation Yrotation Zrotation
                    End Site
                    {
                        OFFSET   0.010000   0.002000   0.060000
                    }
                }
            }
        }
    }
}
MOTION
Frames: 17
Frame Time:   0.008333
 -2.376719   0.925631   3.975860   0.000000   0.000000   0.000000   0.000000   0.000000   0.000000   0.000000   0.000000   0.000000   0.000000   0.000000   0.000000   0.000000   0.000000   0.000000   0.000000   0.000000   0.000000   0.000000   0.000000   0.000000   0.000000   0.000000   0.000000   0.000000   0.000000   0.000000   0.000000   0.000000   0.000000   0.000000   0.000000   0.000000   0.000000   0.000000   0.000000   0.000000   0.000000   0.000000   0.000000   0.000000   0.000000   0.000000   0.000000   0.000000   0.000000   0.000000   0.000000   0.000000   0.000000   0.000000   0.000000   0.000000   0.000000   0.000000   0.000000   0.000000   0.000000   0.000000   0.000000
 -2.376661   0.926173   3.975426  -0.633194   0.227085  -0.105944   0.721393   0.030765   0.108637   0.202273  -0.150443   0.066864  -0.087068   0.094067  -0.005987   0.142989  -0.534569   0.237613   0.419729  -0.061413   2.075517   0.064383   3.069665  -0.024342   0.295572  -1.306126  -2.869210  -0.103888   0.153357  -0.610088   0.351672   0.010050  -1.776243   0.058671  -2.877663   0.014857   0.207023   1.322787   2.977365   0.136133  -0.332531  -0.146239   1.586600   0.003472  -0.001527  -1.490204  -0.609878  -0.035696  -0.195622  -0.000492   0.001217   0.086748   0.167969   0.381610   1.899421  -0.004423   0.006641  -1.562185   0.199469  -0.104721   0.297842  -0.000448   0.001539
 -2.376585   0.927043   3.974971  -1.382460   0.527212  -0.220240   1.429783   0.035493   0.232607   0.508484  -0.341581   0.150394  -0.120412   0.189313  -0.000623   0.287761  -0.926992   1.208774   0.799382   0.033699   4.598024   0.147649   6.058878  -0.042002   0.623524  -1.693825  -5.005769  -0.200414   0.119778  -1.956715   0.664089  -0.179505  -4.030968   0.135428  -5.700000   0.025767   0.435677   1.714095   5.237787   0.316202  -0.672341  -0.508863   3.287844   0.009796  -0.002295  -2.879043  -1.191225  -0.088372  -0.433165  -0.001497   0.002257   0.297117   0.357316   1.001896   3.940579  -0.011721   0.014685  -3.013074   0.398497  -0.194794   0.538815  -0.001204   0.002690
 -2.376489   0.927803   3.974518  -2.122014   0.858033  -0.324966   2.082294   0.015976   0.355792   0.804224  -0.550262   0.236566  -0.151603   0.279122   0.008361   0.428715  -1.185418   2.643797   1.139071   0.223069   7.345400   0.227611   8.885047  -0.052778   0.951995  -1.732091  -6.271058  -0.297405  -0.046298  -3.747457   0.937368  -0.478911  -6.532522   0.209413  -8.380334   0.032291   0.670584   1.710089   6.614907   0.464394  -0.999618  -1.063350   4.905952   0.017084  -0.002888  -4.173476  -1.736010  -0.153298  -0.651074  -0.002582   0.002841   0.557445   0.550396   1.800619   5.900833  -0.019697   0.022160  -4.363604   0.590763  -0.272102   0.764399  -0.002114   0.003606
 -2.376375   0.928138   3.974085  -2.825455   1.196654  -0.417367   2.683595  -0.020415   0.474762   1.071875  -0.766093   0.321393  -0.189683   0.363126   0.017919   0.565936  -1.352082   4.351041   1.443836   0.470477  10.180651   0.294317  11.541513  -0.058642   1.271422  -1.618973  -6.872433  -0.396849  -0.287996  -5.787266   1.175633  -0.839946  -9.138994   0.271190 -10.906654   0.035849   0.903575   1.524985   7.319256   0.565319  -1.311188  -1.774711   6.412006   0.024158  -0.003693  -5.382792  -2.245631  -0.227581  -0.856575  -0.003645   0.003159   0.842256   0.742347   2.737429   7.749039  -0.027234   0.028544  -5.623697   0.774948  -0.338081   0.967035  -0.002981   0.004225
 -2.376243   0.927819   3.973690  -3.488459   1.529543  -0.497875   3.241544  -0.068415   0.588782   1.315257  -0.983406   0.403824  -0.233079   0.441591   0.027067   0.699423  -1.459707   6.198495   1.717606   0.750109  13.012132   0.344157  14.030549  -0.061125   1.576399  -1.439448  -7.017460  -0.498875  -0.566750  -7.944470   1.382610  -1.231301 -11.756630   0.317333 -13.278023   0.037568   1.128025   1.257824   7.561911   0.619327  -1.604562  -2.610047   7.807492   0.030362  -0.004778  -6.513285  -2.721757  -0.308774  -1.050421  -0.004603   0.003304   1.141042   0.930318   3.779435   9.485846  -0.033778   0.033706  -6.799899   0.950413  -0.394052   1.148317  -0.003717   0.004586
 -2.376094   0.926684   3.973341  -4.111530   1.848210  -0.567629   3.762604  -0.124686   0.697861   1.540468  -1.199055   0.483667  -0.279044   0.514866   0.035514   0.829321  -1.530590   8.095821   1.963630   1.044347  15.780107   0.377060  16.358364  -0.061266   1.864432  -1.235647  -6.866099  -0.602696  -0.858361 -10.129952   1.561640  -1.632963 -14.324371   0.347776 -15.498671   0.038183   1.340231   0.958575   7.505124   0.630070  -1.877724  -3.540247   9.099179   0.035376  -0.006071  -7.570279  -3.166083  -0.394826  -1.232105  -0.005397   0.003330   1.447715   1.112556   4.898412  11.116910  -0.039078   0.037649  -7.897823   1.116839  -0.441240   1.311251  -0.004291   0.004742
 -2.375716   0.924174   3.972536  -4.289843   2.018627  -0.612931   3.991946  -0.164325   0.867123   1.590710  -1.324644   0.489700  -0.514949   0.514069  -0.030988   0.988755  -1.550507   9.489479   2.311287   1.228284  18.240295   0.403412  19.078669  -0.065565   2.032076  -1.251751  -5.780091  -0.469132  -1.054169 -11.636156   1.624633  -1.927860 -17.000004   0.376966 -18.135655   0.041797   1.463676   0.773481   6.650613   0.043225  -2.503001  -4.551713  10.437611   0.039058  -0.013566  -7.992614  -3.699791  -0.298933  -1.322082  -0.005076   0.003482   1.443844   1.471224   5.928169  11.839693  -0.036141   0.035130  -8.376660   1.448930  -0.547528   1.607859  -0.005499   0.006280
 -2.375280   0.920473   3.971559  -4.407469   2.183644  -0.649376   4.234437  -0.205367   1.045204   1.606873  -1.431464   0.487601  -0.755748   0.509058  -0.093841   1.120134  -1.532744  10.595481   2.616811   1.438971  20.401583   0.406484  21.642770  -0.067991   2.213858  -1.127490  -4.814836  -0.357437  -1.255832 -12.887908   1.667686  -2.222444 -19.403705   0.383614 -20.619911   0.044084   1.601458   0.444852   5.832039  -0.575245  -3.098344  -5.562185  11.664062   0.040605  -0.018931  -8.378918  -4.205134  -0.214789  -1.351287  -0.004303   0.003044   1.352184   1.804588   6.911637  12.367203  -0.032311   0.031636  -8.826852   1.761507  -0.643198   1.897871  -0.006320   0.007358
 -2.374843   0.915696   3.970538  -4.507385   2.348234  -0.681627   4.485449  -0.237231   1.219139   1.625147  -1.523931   0.484026  -0.977967   0.504002  -0.149413   1.224965  -1.491169  11.496718   2.882644   1.661485  22.323354   0.394895  24.046812  -0.068890   2.398958  -0.944219  -4.074549  -0.272649  -1.463104 -13.948546   1.688923  -2.511523 -21.570345   0.375464 -22.947679   0.044816   1.742039   0.071920   5.190469  -1.164638  -3.641457  -6.547656  12.797181   0.040636  -0.022311  -8.739870  -4.677766  -0.140265  -1.376175  -0.003641   0.002642   1.207374   2.108191   7.855579  12.815922  -0.028617   0.028198  -9.249120   2.053774  -0.729622   2.159957  -0.006711   0.007902
 -2.374356   0.910361   3.969441  -4.577662   2.363791  -0.694890   4.732088  -0.203685   1.372441   1.642567  -1.560076   0.468078  -1.183071   0.501243  -0.201155   1.299611  -1.418052  12.267864   3.109523   1.899007  24.055781   0.375270  26.299866  -0.068223   2.583971  -0.721917  -3.524282  -0.201448  -1.651972 -14.886013   1.696414  -2.777521 -23.545597   0.358821 -25.120127   0.044834   1.877966  -0.294692   4.712015  -1.773928  -4.120237  -7.518610  13.840028   0.039308  -0.025340  -9.075381  -5.118177  -0.073578  -1.386966  -0.002994   0.002210   1.106072   2.254647   8.522286  13.169374  -0.024537   0.023723 -10.043636   2.124296  -0.960239  -1.601452   0.006471  -0.003564
 -2.374322   0.908716   3.968788  -4.846310   2.053693  -0.230071   5.098363  -0.064549   1.059371   1.753537  -1.505456   0.289447  -1.368814   0.500822  -0.261080   1.351917  -1.290718  13.261642   3.307574   2.165675  25.779694   0.357267  28.398149  -0.066212   2.766439  -0.512154  -3.071553  -0.124014  -1.803897 -15.883597   1.703842  -2.990858 -25.380906   0.341926 -27.108105   0.044677   1.999952  -0.512245   4.420567  -2.195733  -4.532765  -8.791350  14.769561   0.035518  -0.028930  -9.378544  -5.532097  -0.016141  -1.313910  -0.001956   0.000948   0.850690   2.461376   8.113220  14.295166  -0.019504   0.019323 -10.526109   2.129017  -1.584087  -1.278157   0.006835  -0.002853
 -2.375059   0.907721   3.968518  -5.060445   1.672039  -0.121331   5.367659   0.079599   1.051661   1.848975  -1.426152   0.192908  -1.532841   0.500222  -0.326534   1.407302  -1.174020  14.071128   3.494238   2.424299  27.365725   0.334042  30.367975  -0.061846   2.938680  -0.261161  -2.518745  -0.019391  -1.915472 -16.774067   1.727088  -3.174934 -27.131027   0.321345 -28.971618   0.044185   2.109533  -0.709772   4.026813  -2.607602  -4.948054  -9.535573  15.655898   0.030713  -0.031537  -9.668671  -5.917211   0.037080  -1.293504  -0.001475   0.000523   0.722918   2.673996   8.080795  15.118779  -0.015967   0.015010 -10.963731   2.237474  -1.811736  -0.949259   0.005922  -0.002310
 -2.376540   0.906590   3.968081  -5.119707   1.375744  -0.083309   5.598241   0.140851   0.927668   1.845433  -1.352789   0.194029  -1.746694   0.455666  -0.276041   1.509986  -1.070787  14.576780   3.792100   2.774100  28.581360   0.304418  32.340061  -0.061627   3.069913  -0.010996  -1.500467   0.182035  -1.998016 -17.190159   1.708941  -3.370688 -28.542723   0.296342 -30.952331   0.045403   2.215025  -0.875379   3.095110  -3.028930  -5.352411 -10.068477  16.171578   0.025367  -0.029420  -9.595951  -6.177869   0.236096  -1.146842  -0.000889  -0.000963   0.308440   2.861696   8.171966  16.121086  -0.013522   0.012186 -11.491163   2.356859  -1.828340  -0.635301   0.004475  -0.001634
 -2.378469   0.905412   3.967679  -5.135948   1.069571  -0.063291   5.816043   0.207563   0.765432   1.815194  -1.274410   0.189673  -1.945535   0.411514  -0.227432   1.582284  -0.973293  14.852734   4.046113   3.103821  29.577365   0.269888  34.192019  -0.059448   3.205164   0.290615  -0.659673   0.339659  -2.067016 -17.336700   1.665243  -3.548464 -29.689693   0.265934 -32.814394   0.044784   2.329395  -1.120056   2.381221  -3.432388  -5.727124 -10.493834  16.602054   0.020669  -0.026810  -9.526602  -6.416955   0.424445  -0.991217  -0.000521  -0.002165  -0.114916   3.033582   8.306464  17.059122  -0.011827   0.009718 -11.993553   2.475733  -1.828175  -0.369676   0.003260  -0.001186
 -2.380725   0.904211   3.967368  -5.121821   0.768208  -0.048641   6.012173   0.273297   0.587235   1.766330  -1.196289   0.168820  -2.127158   0.369815  -0.186977   1.630323  -0.888209  14.962579   4.262738   3.406456  30.399968   0.234354  35.923865  -0.055825   3.337692   0.597780  -0.056958   0.462517  -2.122668 -17.311611   1.602809  -3.706015 -30.641996   0.234293 -34.556292   0.042770   2.445178  -1.381989   1.928801  -3.808063  -6.079860 -10.847222  16.993374   0.016707  -0.024220  -9.462057  -6.639102   0.601256  -0.849763  -0.000312  -0.002930  -0.525014   3.191864   8.465522  17.916708  -0.010588   0.007682 -12.462295   2.593224  -1.816233  -0.143412   0.002274  -0.000867
 -2.383241   0.902995   3.967166  -5.082547   0.480140  -0.033287   6.184044   0.335263   0.401000   1.701414  -1.121732   0.132274  -2.294552   0.330624  -0.152673   1.661221  -0.817396  14.952798   4.449593   3.680938  31.085579   0.200235  37.540862  -0.051369   3.466639   0.891145   0.347440   0.560144  -2.165968 -17.176695   1.528741  -3.844750 -31.448788   0.203832 -36.183736   0.039887   2.559768  -1.640341   1.675733  -4.150104  -6.412423 -11.147983  17.358190   0.013419  -0.021761  -9.401542  -6.845820   0.767026  -0.720766  -0.000195  -0.003368  -0.919830   3.337833   8.640378  18.699853  -0.009641   0.006071 -12.899191   2.707699  -1.796129   0.051196   0.001491  -0.000627
